<svg width="470" height="384" viewBox="0 0 470 384" fill="none" xmlns="http://www.w3.org/2000/svg">
<path d="M426.8 0H43C19.4 0 0.300049 19.1 0.300049 42.7V106.6H43V42.7H426.8V341.3H277.6V384H427C450.6 384 469.7 364.9 469.7 341.3V42.7C469.7 19.1 450.4 0 426.8 0ZM0.300049 319.6V383.5H64.2C64.2 348.2 35.6 319.6 0.300049 319.6ZM0.300049 234.6V277C59.2001 277 106.9 325.1 106.9 384H149.6C149.7 301.6 82.7001 234.7 0.300049 234.6ZM192.4 384H235.1C234.6 254.5 129.8 149.7 0.300049 149.4V191.8C106.3 191.6 192.3 278 192.4 384Z" fill="white"/>
</svg>
