<svg width="512" height="211" viewBox="0 0 512 211" fill="none" xmlns="http://www.w3.org/2000/svg">
<path fill-rule="evenodd" clip-rule="evenodd" d="M150.226 209.772H94.1703V129.567H57.7825V209.772H0V3.05493H57.7825V79.9519H94.1703V3.05493H150.226V209.772Z" fill="white"/>
<path fill-rule="evenodd" clip-rule="evenodd" d="M407.038 146.258C429.784 146.258 448.224 127.776 448.224 104.971C448.224 82.1712 429.784 63.6859 407.038 63.6859C384.288 63.6859 365.85 82.1712 365.85 104.971C365.85 127.776 384.288 146.258 407.038 146.258ZM354.645 104.971C354.645 75.9675 378.1 52.4528 407.038 52.4528C435.974 52.4528 459.434 75.9675 459.434 104.971C459.434 133.979 435.974 157.492 407.038 157.492C378.1 157.492 354.645 133.979 354.645 104.971ZM281.69 104.971C288.173 104.148 298.98 96.7175 302.787 91.9748C301.449 97.8555 301.347 114.876 302.911 120.756C298.565 114.051 288.277 105.797 281.69 104.971ZM244.024 49.3702C252.257 49.3702 258.741 57.5177 258.741 66.803C258.741 76.0884 252.257 84.2409 244.024 84.2409H215.724V49.3702H244.024ZM243.92 126.841C252.153 126.841 258.638 134.993 258.638 144.275C258.638 153.561 252.153 161.71 243.92 161.71H215.621V126.841H243.92ZM407.003 210.791C464.668 210.768 511.594 162.741 511.581 104.93C511.57 45.8995 464.668 0.0437498 407.003 3.05556e-05C349.405 -0.0415954 319.976 42.4583 312.704 59.6127C312.772 33.8608 287.451 3.46467 257.833 3.43216H162.407V209.763L251.376 209.781C287.247 209.781 312.771 178.625 312.815 151.908C321.002 168.722 349.405 210.811 407.003 210.791Z" fill="white"/>
</svg>
