<svg width="116" height="20" viewBox="0 0 116 20" fill="none" xmlns="http://www.w3.org/2000/svg">
<g clip-path="url(#clip0_14_103)">
<path d="M14.2182 19.9161H8.89823V12.3295H5.45644V19.9161H0V0.346279H5.44596V7.64953H8.88772V0.346279H14.2078V19.9161H14.2182ZM38.6044 20C44.0504 20 48.4995 15.467 48.4995 9.94754C48.4995 4.34418 44.0504 0.010498 38.6044 0.010498C33.085 0.010498 30.2938 4.01889 29.6222 5.65583C29.6222 3.2319 27.1983 0.335787 24.3861 0.335787H15.2991V19.9161H23.7565C27.1983 19.9161 29.6222 16.978 29.6222 14.3966C30.3882 15.9916 33.0955 20 38.6044 20ZM23.085 12.0462C23.872 12.0462 24.5016 12.8122 24.5016 13.6831C24.5016 14.596 23.872 15.362 23.085 15.362H20.3777V12.0462H23.085ZM23.085 4.70095C23.872 4.70095 24.5016 5.46695 24.5016 6.33788C24.5016 7.20882 23.872 7.97482 23.085 7.97482H20.3777V4.70095H23.085ZM26.6632 9.94754C27.2928 9.90557 28.3211 9.18154 28.7093 8.75132C28.5624 9.27598 28.5624 10.9339 28.7093 11.4586C28.2791 10.8185 27.2928 10.063 26.6632 9.94754ZM33.6411 9.94754C33.6411 7.18783 35.8867 4.96328 38.6464 4.97377C41.4166 4.99476 43.6201 7.25079 43.5887 10.021C43.5467 12.7492 41.3431 14.9423 38.6149 14.9423C35.8657 14.9423 33.6411 12.7177 33.6411 9.94754ZM38.6044 13.872C40.724 13.872 42.5079 12.1301 42.5079 9.94754C42.5079 7.76496 40.724 6.04408 38.6044 6.04408C36.4218 6.04408 34.6799 7.76496 34.6799 9.94754C34.6799 12.1301 36.4218 13.872 38.6044 13.872Z" fill="black"/>
<path d="M76.9359 7.27177C76.831 2.52886 73.4732 0.020986 69.3599 0.020986C67.1038 0.020986 65.0681 0.776495 63.683 2.24554C62.2979 0.776495 60.2623 0.020986 58.0062 0.020986C53.8929 0.020986 50.5351 2.53935 50.4302 7.28227C50.4302 7.29276 50.4302 7.30325 50.4302 7.31375V18.1322C50.4302 19.1291 51.2381 19.9265 52.2245 19.9265H53.9244C54.0923 19.9265 54.2287 19.7901 54.2287 19.6222V7.30325C54.3022 4.96327 55.9601 3.72508 58.0062 3.72508C60.0524 3.72508 61.7103 4.96327 61.7838 7.30325V18.1217C61.7838 19.1186 62.5918 19.9161 63.5781 19.9161H65.278C65.4459 19.9161 65.5823 19.7796 65.5823 19.6118V7.29276C65.6558 4.95278 67.3137 3.71459 69.3599 3.71459C71.406 3.71459 73.064 4.95278 73.1374 7.29276V18.1112C73.1374 19.1081 73.9454 19.9056 74.9317 19.9056H76.6316C76.7995 19.9056 76.9359 19.7692 76.9359 19.6013V7.28227C76.9464 7.29276 76.9359 7.28227 76.9359 7.27177ZM115.205 0.325289H112.319C111.521 0.325289 110.776 0.724029 110.325 1.3851L107.135 6.10703C106.716 6.72613 105.813 6.72613 105.393 6.10703L102.204 1.3851C101.763 0.724029 101.007 0.325289 100.21 0.325289H97.3242C97.1458 0.325289 97.0409 0.524658 97.1353 0.671563L102.823 9.10808C103.232 9.71669 103.232 10.5142 102.823 11.1228L97.1353 19.5593C97.0304 19.7062 97.1458 19.9056 97.3242 19.9056H100.21C101.007 19.9056 101.752 19.5068 102.204 18.8458L105.393 14.1238C105.813 13.5047 106.716 13.5047 107.135 14.1238L110.325 18.8458C110.766 19.5068 111.521 19.9056 112.319 19.9056H115.205C115.383 19.9056 115.488 19.7062 115.393 19.5593L109.696 11.1333C109.286 10.5247 109.286 9.72718 109.696 9.11857L115.383 0.682057C115.488 0.535152 115.383 0.325289 115.205 0.325289ZM95.8342 0.325289H94.1343C93.2738 0.325289 92.5498 0.933894 92.3714 1.74187C90.8604 0.587619 88.9611 0 86.915 0C81.9412 0 77.9013 3.46275 77.9013 10C77.9013 16.5373 81.9307 20 86.915 20C88.9506 20 90.8289 19.4229 92.3399 18.2896C92.4239 19.2025 93.1899 19.9265 94.1343 19.9265H95.8342C96.002 19.9265 96.1384 19.7901 96.1384 19.6222V0.629591C96.128 0.4617 96.002 0.325289 95.8342 0.325289ZM86.915 16.2854C83.9454 16.2854 81.5319 14.1133 81.5319 10.0105C81.5319 5.90766 83.9454 3.73557 86.915 3.73557C89.8845 3.73557 92.298 5.90766 92.298 10.0105C92.298 14.1133 89.8845 16.2854 86.915 16.2854Z" fill="url(#paint0_linear_14_103)"/>
<mask id="mask0_14_103" style="mask-type:luminance" maskUnits="userSpaceOnUse" x="50" y="0" width="66" height="20">
<path d="M76.9359 7.27177C76.831 2.52886 73.4732 0.0209876 69.3599 0.0209876C67.1038 0.0209876 65.0681 0.776496 63.683 2.24554C62.2979 0.776496 60.2623 0.0209876 58.0062 0.0209876C53.8929 0.0209876 50.5351 2.53935 50.4302 7.28227C50.4302 7.29276 50.4302 7.30325 50.4302 7.31375V18.1322C50.4302 19.1291 51.2381 19.9266 52.2245 19.9266H53.9244C54.0923 19.9266 54.2287 19.7901 54.2287 19.6222V7.30325C54.3022 4.96327 55.9601 3.72508 58.0062 3.72508C60.0524 3.72508 61.7103 4.96327 61.7838 7.30325V18.1217C61.7838 19.1186 62.5918 19.9161 63.5781 19.9161H65.278C65.4459 19.9161 65.5823 19.7796 65.5823 19.6118V7.29276C65.6558 4.95278 67.3137 3.71459 69.3599 3.71459C71.406 3.71459 73.064 4.95278 73.1374 7.29276V18.1112C73.1374 19.1081 73.9454 19.9056 74.9317 19.9056H76.6316C76.7995 19.9056 76.9359 19.7692 76.9359 19.6013V7.28227C76.9464 7.29276 76.9359 7.28227 76.9359 7.27177V7.27177ZM115.205 0.325289H112.319C111.521 0.325289 110.776 0.724031 110.325 1.3851L107.135 6.10703C106.716 6.72613 105.813 6.72613 105.393 6.10703L102.204 1.3851C101.763 0.724031 101.007 0.325289 100.21 0.325289H97.3242C97.1458 0.325289 97.0409 0.52466 97.1353 0.671564L102.823 9.10808C103.232 9.71669 103.232 10.5142 102.823 11.1228L97.1353 19.5593C97.0304 19.7062 97.1458 19.9056 97.3242 19.9056H100.21C101.007 19.9056 101.752 19.5068 102.204 18.8458L105.393 14.1238C105.813 13.5047 106.716 13.5047 107.135 14.1238L110.325 18.8458C110.766 19.5068 111.521 19.9056 112.319 19.9056H115.205C115.383 19.9056 115.488 19.7062 115.393 19.5593L109.696 11.1333C109.286 10.5247 109.286 9.72718 109.696 9.11857L115.383 0.682057C115.488 0.535152 115.383 0.325289 115.205 0.325289V0.325289ZM95.8342 0.325289H94.1343C93.2738 0.325289 92.5498 0.933894 92.3714 1.74187C90.8604 0.587619 88.9611 0 86.915 0C81.9412 0 77.9013 3.46275 77.9013 10C77.9013 16.5373 81.9307 20 86.915 20C88.9506 20 90.8289 19.4229 92.3399 18.2896C92.4239 19.2025 93.1899 19.9266 94.1343 19.9266H95.8342C96.002 19.9266 96.1384 19.7901 96.1384 19.6222V0.629591C96.128 0.4617 96.002 0.325289 95.8342 0.325289V0.325289ZM86.915 16.2854C83.9454 16.2854 81.5319 14.1133 81.5319 10.0105C81.5319 5.90766 83.9454 3.73557 86.915 3.73557C89.8845 3.73557 92.298 5.90766 92.298 10.0105C92.298 14.1133 89.8845 16.2854 86.915 16.2854Z" fill="white"/>
</mask>
<g mask="url(#mask0_14_103)">
<path d="M66.0754 21.4376C72.4849 21.4376 77.6809 14.6726 77.6809 6.32746C77.6809 -2.01766 72.4849 -8.78271 66.0754 -8.78271C59.6659 -8.78271 54.47 -2.01766 54.47 6.32746C54.47 14.6726 59.6659 21.4376 66.0754 21.4376Z" fill="url(#paint1_radial_14_103)"/>
</g>
<mask id="mask1_14_103" style="mask-type:luminance" maskUnits="userSpaceOnUse" x="50" y="0" width="66" height="20">
<path d="M76.9359 7.27177C76.831 2.52886 73.4732 0.0209876 69.3599 0.0209876C67.1038 0.0209876 65.0681 0.776496 63.683 2.24554C62.2979 0.776496 60.2623 0.0209876 58.0062 0.0209876C53.8929 0.0209876 50.5351 2.53935 50.4302 7.28227C50.4302 7.29276 50.4302 7.30325 50.4302 7.31375V18.1322C50.4302 19.1291 51.2381 19.9266 52.2245 19.9266H53.9244C54.0923 19.9266 54.2287 19.7901 54.2287 19.6222V7.30325C54.3022 4.96327 55.9601 3.72508 58.0062 3.72508C60.0524 3.72508 61.7103 4.96327 61.7838 7.30325V18.1217C61.7838 19.1186 62.5918 19.9161 63.5781 19.9161H65.278C65.4459 19.9161 65.5823 19.7796 65.5823 19.6118V7.29276C65.6558 4.95278 67.3137 3.71459 69.3599 3.71459C71.406 3.71459 73.064 4.95278 73.1374 7.29276V18.1112C73.1374 19.1081 73.9454 19.9056 74.9317 19.9056H76.6316C76.7995 19.9056 76.9359 19.7692 76.9359 19.6013V7.28227C76.9464 7.29276 76.9359 7.28227 76.9359 7.27177V7.27177ZM115.205 0.325289H112.319C111.521 0.325289 110.776 0.724031 110.325 1.3851L107.135 6.10703C106.716 6.72613 105.813 6.72613 105.393 6.10703L102.204 1.3851C101.763 0.724031 101.007 0.325289 100.21 0.325289H97.3242C97.1458 0.325289 97.0409 0.52466 97.1353 0.671564L102.823 9.10808C103.232 9.71669 103.232 10.5142 102.823 11.1228L97.1353 19.5593C97.0304 19.7062 97.1458 19.9056 97.3242 19.9056H100.21C101.007 19.9056 101.752 19.5068 102.204 18.8458L105.393 14.1238C105.813 13.5047 106.716 13.5047 107.135 14.1238L110.325 18.8458C110.766 19.5068 111.521 19.9056 112.319 19.9056H115.205C115.383 19.9056 115.488 19.7062 115.393 19.5593L109.696 11.1333C109.286 10.5247 109.286 9.72718 109.696 9.11857L115.383 0.682057C115.488 0.535152 115.383 0.325289 115.205 0.325289V0.325289ZM95.8342 0.325289H94.1343C93.2738 0.325289 92.5498 0.933894 92.3714 1.74187C90.8604 0.587619 88.9611 0 86.915 0C81.9412 0 77.9013 3.46275 77.9013 10C77.9013 16.5373 81.9307 20 86.915 20C88.9506 20 90.8289 19.4229 92.3399 18.2896C92.4239 19.2025 93.1899 19.9266 94.1343 19.9266H95.8342C96.002 19.9266 96.1384 19.7901 96.1384 19.6222V0.629591C96.128 0.4617 96.002 0.325289 95.8342 0.325289V0.325289ZM86.915 16.2854C83.9454 16.2854 81.5319 14.1133 81.5319 10.0105C81.5319 5.90766 83.9454 3.73557 86.915 3.73557C89.8845 3.73557 92.298 5.90766 92.298 10.0105C92.298 14.1133 89.8845 16.2854 86.915 16.2854Z" fill="white"/>
</mask>
<g mask="url(#mask1_14_103)">
<path d="M77.6391 35.8237C90.829 35.8237 101.522 28.2553 101.522 18.9192C101.522 9.58306 90.829 2.01465 77.6391 2.01465C64.4492 2.01465 53.7566 9.58306 53.7566 18.9192C53.7566 28.2553 64.4492 35.8237 77.6391 35.8237Z" fill="url(#paint2_radial_14_103)"/>
</g>
<mask id="mask2_14_103" style="mask-type:luminance" maskUnits="userSpaceOnUse" x="50" y="0" width="66" height="20">
<path d="M76.9359 7.27177C76.831 2.52886 73.4732 0.0209876 69.3599 0.0209876C67.1038 0.0209876 65.0681 0.776496 63.683 2.24554C62.2979 0.776496 60.2623 0.0209876 58.0062 0.0209876C53.8929 0.0209876 50.5351 2.53935 50.4302 7.28227C50.4302 7.29276 50.4302 7.30325 50.4302 7.31375V18.1322C50.4302 19.1291 51.2381 19.9266 52.2245 19.9266H53.9244C54.0923 19.9266 54.2287 19.7901 54.2287 19.6222V7.30325C54.3022 4.96327 55.9601 3.72508 58.0062 3.72508C60.0524 3.72508 61.7103 4.96327 61.7838 7.30325V18.1217C61.7838 19.1186 62.5918 19.9161 63.5781 19.9161H65.278C65.4459 19.9161 65.5823 19.7796 65.5823 19.6118V7.29276C65.6558 4.95278 67.3137 3.71459 69.3599 3.71459C71.406 3.71459 73.064 4.95278 73.1374 7.29276V18.1112C73.1374 19.1081 73.9454 19.9056 74.9317 19.9056H76.6316C76.7995 19.9056 76.9359 19.7692 76.9359 19.6013V7.28227C76.9464 7.29276 76.9359 7.28227 76.9359 7.27177V7.27177ZM115.205 0.325289H112.319C111.521 0.325289 110.776 0.724031 110.325 1.3851L107.135 6.10703C106.716 6.72613 105.813 6.72613 105.393 6.10703L102.204 1.3851C101.763 0.724031 101.007 0.325289 100.21 0.325289H97.3242C97.1458 0.325289 97.0409 0.52466 97.1353 0.671564L102.823 9.10808C103.232 9.71669 103.232 10.5142 102.823 11.1228L97.1353 19.5593C97.0304 19.7062 97.1458 19.9056 97.3242 19.9056H100.21C101.007 19.9056 101.752 19.5068 102.204 18.8458L105.393 14.1238C105.813 13.5047 106.716 13.5047 107.135 14.1238L110.325 18.8458C110.766 19.5068 111.521 19.9056 112.319 19.9056H115.205C115.383 19.9056 115.488 19.7062 115.393 19.5593L109.696 11.1333C109.286 10.5247 109.286 9.72718 109.696 9.11857L115.383 0.682057C115.488 0.535152 115.383 0.325289 115.205 0.325289V0.325289ZM95.8342 0.325289H94.1343C93.2738 0.325289 92.5498 0.933894 92.3714 1.74187C90.8604 0.587619 88.9611 0 86.915 0C81.9412 0 77.9013 3.46275 77.9013 10C77.9013 16.5373 81.9307 20 86.915 20C88.9506 20 90.8289 19.4229 92.3399 18.2896C92.4239 19.2025 93.1899 19.9266 94.1343 19.9266H95.8342C96.002 19.9266 96.1384 19.7901 96.1384 19.6222V0.629591C96.128 0.4617 96.002 0.325289 95.8342 0.325289V0.325289ZM86.915 16.2854C83.9454 16.2854 81.5319 14.1133 81.5319 10.0105C81.5319 5.90766 83.9454 3.73557 86.915 3.73557C89.8845 3.73557 92.298 5.90766 92.298 10.0105C92.298 14.1133 89.8845 16.2854 86.915 16.2854Z" fill="white"/>
</mask>
<g mask="url(#mask2_14_103)">
<path d="M92.2979 14.1344C99.4724 14.1344 105.288 8.31836 105.288 1.14388C105.288 -6.03061 99.4724 -11.8467 92.2979 -11.8467C85.1234 -11.8467 79.3074 -6.03061 79.3074 1.14388C79.3074 8.31836 85.1234 14.1344 92.2979 14.1344Z" fill="url(#paint3_radial_14_103)"/>
</g>
</g>
<defs>
<linearGradient id="paint0_linear_14_103" x1="50.4342" y1="10.0058" x2="115.425" y2="10.0058" gradientUnits="userSpaceOnUse">
<stop stop-color="#991EEB"/>
<stop offset="0.399" stop-color="#5822B4"/>
<stop offset="0.727" stop-color="#5822B4"/>
<stop offset="1" stop-color="#991EEB"/>
</linearGradient>
<radialGradient id="paint1_radial_14_103" cx="0" cy="0" r="1" gradientUnits="userSpaceOnUse" gradientTransform="translate(66.08 6.32353) scale(11.6049 15.1071)">
<stop stop-color="#7BA7F2" stop-opacity="0.5"/>
<stop offset="1" stop-color="#7BA7F2" stop-opacity="0"/>
</radialGradient>
<radialGradient id="paint2_radial_14_103" cx="0" cy="0" r="1" gradientUnits="userSpaceOnUse" gradientTransform="translate(77.6347 18.9161) scale(23.8781 16.9081)">
<stop offset="0.2" stop-color="#7BA7F2"/>
<stop offset="1" stop-color="#7BA7F2" stop-opacity="0"/>
</radialGradient>
<radialGradient id="paint3_radial_14_103" cx="0" cy="0" r="1" gradientUnits="userSpaceOnUse" gradientTransform="translate(92.2964 1.14792) scale(12.9877 12.9877)">
<stop stop-color="#7BA7F2"/>
<stop offset="1" stop-color="#7BA7F2" stop-opacity="0"/>
</radialGradient>
<clipPath id="clip0_14_103">
<rect width="115.429" height="20" fill="white"/>
</clipPath>
</defs>
</svg>
