<svg width="32" height="22" viewBox="0 0 32 22" fill="none" xmlns="http://www.w3.org/2000/svg">
<path d="M29 19.0006V1.44055C28.9974 1.2471 28.9564 1.05609 28.8794 0.878616C28.8024 0.701147 28.6908 0.540759 28.5512 0.406774C28.4117 0.27279 28.2469 0.167881 28.0664 0.098144C27.8859 0.0284073 27.6934 -0.00476609 27.5 0.00055164H4.50002C4.30662 -0.00476609 4.1141 0.0284073 3.93363 0.098144C3.75317 0.167881 3.58836 0.27279 3.4488 0.406774C3.30923 0.540759 3.19768 0.701147 3.12064 0.878616C3.0436 1.05609 3.0026 1.2471 3.00002 1.44055V19.0006H2.1605e-05V19.4406C-0.00273233 20.11 0.25789 20.7537 0.725625 21.2327C1.19336 21.7116 1.83069 21.9874 2.50002 22.0006H29.5C30.1694 21.9874 30.8067 21.7116 31.2744 21.2327C31.7422 20.7537 32.0028 20.11 32 19.4406V19.0006H29ZM4.00002 1.44055C4.00249 1.37833 4.01757 1.31725 4.04434 1.26102C4.07111 1.20479 4.10902 1.15459 4.15577 1.11345C4.20252 1.07231 4.25714 1.04109 4.31631 1.02168C4.37549 1.00228 4.43799 0.995087 4.50002 1.00055H27.5C27.5621 0.995087 27.6246 1.00228 27.6837 1.02168C27.7429 1.04109 27.7975 1.07231 27.8443 1.11345C27.891 1.15459 27.9289 1.20479 27.9557 1.26102C27.9825 1.31725 27.9976 1.37833 28 1.44055V19.0006H4.00002V1.44055ZM2.50002 21.0006C2.19488 20.9828 1.90086 20.8797 1.65154 20.7029C1.40222 20.526 1.20765 20.2827 1.09002 20.0006H14V21.0006H2.50002ZM29.5 21.0006H18V20.0006H30.91C30.7924 20.2827 30.5978 20.526 30.3485 20.7029C30.0992 20.8797 29.8052 20.9828 29.5 21.0006Z" fill="white"/>
<path d="M5 18.0006H27V2.00061H5V18.0006ZM6 3.00061H26V17.0006H6V3.00061Z" fill="white"/>
</svg>
