<svg width="32" height="32" viewBox="0 0 32 32" fill="none" xmlns="http://www.w3.org/2000/svg">
<g clip-path="url(#clip0_8_88)">
<path d="M29 23.9999V6.43994C28.9974 6.24649 28.9564 6.05548 28.8794 5.87801C28.8024 5.70054 28.6908 5.54015 28.5512 5.40616C28.4117 5.27218 28.2469 5.16727 28.0664 5.09753C27.8859 5.0278 27.6934 4.99462 27.5 4.99994H4.50002C4.30662 4.99462 4.1141 5.0278 3.93363 5.09753C3.75317 5.16727 3.58836 5.27218 3.4488 5.40616C3.30923 5.54015 3.19768 5.70054 3.12064 5.87801C3.0436 6.05548 3.0026 6.24649 3.00002 6.43994V23.9999H2.1605e-05V24.4399C-0.00273233 25.1094 0.25789 25.7531 0.725625 26.232C1.19336 26.711 1.83069 26.9868 2.50002 26.9999H29.5C30.1694 26.9868 30.8067 26.711 31.2744 26.232C31.7422 25.7531 32.0028 25.1094 32 24.4399V23.9999H29ZM4.00002 6.43994C4.00249 6.37772 4.01757 6.31664 4.04434 6.26041C4.07111 6.20418 4.10902 6.15398 4.15577 6.11284C4.20252 6.0717 4.25714 6.04048 4.31631 6.02107C4.37549 6.00167 4.43799 5.99448 4.50002 5.99994H27.5C27.5621 5.99448 27.6246 6.00167 27.6837 6.02107C27.7429 6.04048 27.7975 6.0717 27.8443 6.11284C27.891 6.15398 27.9289 6.20418 27.9557 6.26041C27.9825 6.31664 27.9976 6.37772 28 6.43994V23.9999H4.00002V6.43994ZM2.50002 25.9999C2.19488 25.9822 1.90086 25.8791 1.65154 25.7022C1.40222 25.5254 1.20765 25.2821 1.09002 24.9999H14V25.9999H2.50002ZM29.5 25.9999H18V24.9999H30.91C30.7924 25.2821 30.5978 25.5254 30.3485 25.7022C30.0992 25.8791 29.8052 25.9822 29.5 25.9999Z" fill="white"/>
<path d="M5 23H27V7H5V23ZM6 8H26V22H6V8Z" fill="white"/>
</g>
<defs>
<clipPath id="clip0_8_88">
<rect width="32" height="32" fill="white"/>
</clipPath>
</defs>
</svg>
