<?xml version="1.0" encoding="utf-8"?>
<!-- Generator: Adobe Illustrator 19.2.1, SVG Export Plug-In . SVG Version: 6.00 Build 0)  -->
<svg version="1.1" id="layer" xmlns="http://www.w3.org/2000/svg" xmlns:xlink="http://www.w3.org/1999/xlink" x="0px" y="0px"
	 viewBox="0 0 652 652" style="enable-background:new 0 0 652 652;" xml:space="preserve">
<path d="M20.7,218.1h73.6v210.2H20.7V218.1z M230.8,428.3h73.7V218.1h-73.7V428.3z M396.9,428.3h73.7V218.1h-73.7V428.3z
	 M350.7,213.8c-23,0-41.6,18.8-41.6,41.9c0,23.1,18.6,41.9,41.6,41.9c23,0,41.6-18.8,41.6-41.9C392.3,232.5,373.6,213.8,350.7,213.8
	 M562.6,333c-4.4-7.5-4.6-12.1-0.4-19.3l58.4-95.6h-81c0,0-48.7,79.5-55.4,90.6c-6.6,11-6.4,17.9,0.3,29.3
	c6.6,11.3,55.1,90.4,55.1,90.4h81C620.7,428.3,563.3,334.2,562.6,333 M186.7,251.8c-3.8-19.2-20.6-33.7-40.8-33.7H98.6l47.5,210.2
	h80.2L186.7,251.8z"/>
</svg>
