<svg width="31" height="12" viewBox="0 0 31 12" fill="none" xmlns="http://www.w3.org/2000/svg">
<path d="M0.699951 1.01508H4.38056V11.5268H0.699951V1.01508ZM11.2067 11.5268H14.8923V1.01508H11.2067V11.5268ZM19.5131 11.5268H23.1987V1.01508H19.5131V11.5268ZM17.2027 0.800049C16.0525 0.800049 15.1224 1.74021 15.1224 2.8954C15.1224 4.05059 16.0525 4.99075 17.2027 4.99075C18.3529 4.99075 19.283 4.05059 19.283 2.8954C19.283 1.7352 18.3479 0.800049 17.2027 0.800049ZM27.7995 6.76104C27.5794 6.38598 27.5694 6.15594 27.7795 5.79588L30.6999 1.01508H26.6493C26.6493 1.01508 24.2139 4.99075 23.8788 5.54584C23.5488 6.09593 23.5588 6.44099 23.8938 7.01108C24.2239 7.57618 26.6493 11.5318 26.6493 11.5318H30.6999C30.7049 11.5268 27.8345 6.82105 27.7995 6.76104ZM9.00133 2.70037C8.8113 1.74021 7.97116 1.01508 6.96099 1.01508H4.5956L6.971 11.5268H10.9817L9.00133 2.70037Z" fill="white"/>
</svg>
